<?xml version="1.0" encoding="UTF-8"?>
<svg id="Layer_2" data-name="Layer 2" xmlns="http://www.w3.org/2000/svg" xmlns:xlink="http://www.w3.org/1999/xlink" viewBox="0 0 264 171">
  <defs>
    <style>
      .cls-1 {
        fill: #eaeaea;
      }

      .cls-1, .cls-2, .cls-3 {
        font-family: Arial-BoldMT, Arial;
        font-weight: 700;
      }

      .cls-1, .cls-4 {
        font-size: 12px;
      }

      .cls-5 {
        stroke: #66ffc1;
        stroke-miterlimit: 10;
        stroke-width: 1.5px;
      }

      .cls-5, .cls-6, .cls-7 {
        fill: none;
      }

      .cls-8, .cls-3 {
        fill: #fff;
      }

      .cls-2 {
        fill: #213544;
        font-size: 15.19px;
      }

      .cls-9 {
        fill: #858997;
        font-family: Verdana, Verdana;
        font-size: 9.58px;
      }

      .cls-10 {
        fill: #c5edff;
      }

      .cls-10, .cls-11 {
        opacity: .25;
      }

      .cls-12 {
        letter-spacing: 0em;
      }

      .cls-3 {
        font-size: 13px;
      }

      .cls-6 {
        stroke: #15b7ff;
        stroke-width: 4px;
      }

      .cls-6, .cls-7 {
        stroke-linecap: round;
        stroke-linejoin: round;
      }

      .cls-13 {
        letter-spacing: -.02em;
      }

      .cls-11 {
        fill: #c0f2ff;
      }

      .cls-7 {
        opacity: .15;
        stroke: #00a9f4;
        stroke-width: 3.27px;
      }

      .cls-14 {
        fill: url(#linear-gradient);
      }

      .cls-4 {
        fill: #00ffb6;
        font-family: ArialMT, Arial;
      }
    </style>
    <linearGradient id="linear-gradient" x1="0" y1="154.5" x2="264" y2="154.5" gradientUnits="userSpaceOnUse">
      <stop offset="0" stop-color="#005377"/>
      <stop offset="1" stop-color="#1a7791"/>
    </linearGradient>
  </defs>
  <g id="OBJECTS">
    <g>
      <rect class="cls-8" width="264" height="171" rx="10" ry="10"/>
      <circle class="cls-11" cx="22" cy="95" r="6"/>
      <circle class="cls-10" cx="240" cy="44" r="6"/>
      <path class="cls-7" d="m22.5,110.41c34.5,0,27-29.48,58-29.48s22.5,33.5,66.5,33.5c7.68,0,13.36-2.34,17.24-3.77,5-1.84,11.21-4.79,25.98-16.35,15.8-12.35,16.05-14.73,24.25-19.71,10.22-6.2,20.03-8.71,26.53-9.85"/>
      <path class="cls-6" d="m22.5,108.43c6.38-.17,10.87-1.74,13.59-2.98,18.61-8.46,19.24-31.81,35.89-36.14,4.62-1.2,8.47-.43,10.61,0,20.12,4.04,20.7,28.62,44.53,40.48,9.69,4.82,17.58,4.65,19.88,4.65,5.28,0,9.5-1.08,13-2.87,15.56-7.95,24.69-22.22,34-32.13,7.84-8.34,21.39-18.04,46.24-22.25"/>
      <path class="cls-14" d="m264,138v25.67c0,4.05-4.48,7.33-10,7.33H10c-5.52,0-10-3.29-10-7.33v-25.67h264Z"/>
      <text class="cls-9" transform="translate(19.17 17.98)"><tspan class="cls-13" x="0" y="0">R</tspan><tspan x="6.43" y="0">e</tspan><tspan class="cls-12" x="12.14" y="0">v</tspan><tspan x="17.72" y="0">enue</tspan></text>
      <text class="cls-1" transform="translate(18.79 158.89)"><tspan x="0" y="0">Direct visits</tspan></text>
      <text class="cls-2" transform="translate(19.9 39.8)"><tspan x="0" y="0">$79.350</tspan></text>
      <text class="cls-3" transform="translate(200.49 158.89)"><tspan x="0" y="0">45.70%</tspan></text>
    </g>
    <line class="cls-5" x1="110.73" y1="30.56" x2="116.68" y2="23.7"/>
    <path class="cls-5" d="m117.89,29.76c-.33-2.31-.66-4.62-.99-6.94"/>
    <line class="cls-5" x1="110.93" y1="23.98" x2="117.73" y2="23.35"/>
    <text class="cls-4" transform="translate(125.12 30.74)"><tspan x="0" y="0">+0.20%</tspan></text>
  </g>
</svg>