<svg xmlns="http://www.w3.org/2000/svg" version="1.1" xmlns:xlink="http://www.w3.org/1999/xlink" xmlns:svgjs="http://svgjs.com/svgjs" width="1440" height="560" preserveAspectRatio="none" viewBox="0 0 1440 560"><g mask="url(&quot;#SvgjsMask3186&quot;)" fill="none"><rect width="1440" height="560" x="0" y="0" fill="url(#SvgjsLinearGradient3187)"></rect><path d="M580.53 99.7L595.78 99.7L595.78 110.27L580.53 110.27z" stroke="rgba(248, 153, 32, 1)"></path><path d="M783.48 414.32L804.65 414.32L804.65 435.3L783.48 435.3z" fill="rgba(211, 213, 207, 1)"></path><path d="M947.37 384.02L977.26 384.02L977.26 413.91L947.37 413.91z" stroke="rgba(211, 213, 207, 1)"></path><path d="M1419.46 103.12a21.35 21.35 0 1 0 20.56 37.42z" stroke="rgba(248, 153, 32, 1)"></path><path d="M590.61 340.91a22.76 22.76 0 1 0-29.07 35.04z" stroke="rgba(26, 119, 145, 1)"></path><path d="M575.45 94.14 a47.41 47.41 0 1 0 94.82 0 a47.41 47.41 0 1 0 -94.82 0z" fill="rgba(26, 119, 145, 1)"></path><path d="M37.8 16.16L58.11 16.16L58.11 36.47L37.8 36.47z" fill="rgba(211, 213, 207, 1)"></path><path d="M489.15 505.02L517.59 505.02L517.59 533.46L489.15 533.46z" fill="rgba(248, 153, 32, 1)"></path><path d="M833.94 160.32L865.39 160.32L865.39 185.13L833.94 185.13z" stroke="rgba(248, 153, 32, 1)"></path><path d="M193.57 216.87L226.74 216.87L226.74 250.04L193.57 250.04z" stroke="rgba(211, 213, 207, 1)"></path><path d="M265.63 156.74L310.69 156.74L310.69 209.59L265.63 209.59z" stroke="rgba(248, 153, 32, 1)"></path><path d="M1137.93 385.99 a37.32 37.32 0 1 0 74.64 0 a37.32 37.32 0 1 0 -74.64 0z" fill="rgba(248, 153, 32, 1)"></path><path d="M873.3 147.66a54.6 54.6 0 1 0-23.45-106.65z" stroke="rgba(26, 119, 145, 1)"></path><path d="M144.14 134.39L156 134.39L156 185.28L144.14 185.28z" fill="rgba(248, 153, 32, 1)"></path><path d="M1343.01 58.18 a43.67 43.67 0 1 0 87.34 0 a43.67 43.67 0 1 0 -87.34 0z" stroke="rgba(26, 119, 145, 1)"></path><path d="M940.8 445.95L983.99 445.95L983.99 489.14L940.8 489.14z" stroke="rgba(26, 119, 145, 1)"></path><path d="M342.42 434.94 a6.22 6.22 0 1 0 12.44 0 a6.22 6.22 0 1 0 -12.44 0z" fill="rgba(26, 119, 145, 1)"></path><path d="M425.7 71.32a29.35 29.35 0 1 0-34.07 47.8z" stroke="rgba(26, 119, 145, 1)"></path><path d="M119.63 9.13a23.59 23.59 0 1 0 22.06 41.71z" fill="rgba(211, 213, 207, 1)"></path><path d="M463.35 209.91L486.35 209.91L486.35 228.19L463.35 228.19z" stroke="rgba(211, 213, 207, 1)"></path><path d="M1416.67 554.58a44.73 44.73 0 1 0-82.72-34.08z" stroke="rgba(211, 213, 207, 1)"></path><path d="M495.22 298.87 a26.51 26.51 0 1 0 53.02 0 a26.51 26.51 0 1 0 -53.02 0z" stroke="rgba(248, 153, 32, 1)"></path><path d="M596.99 268.42 a3.65 3.65 0 1 0 7.3 0 a3.65 3.65 0 1 0 -7.3 0z" stroke="rgba(248, 153, 32, 1)"></path><path d="M1350.28 306.35a21.98 21.98 0 1 0 29.28 32.79z" fill="rgba(248, 153, 32, 1)"></path><path d="M73.17 188.92a51.7 51.7 0 1 0 80.09 65.4z" fill="rgba(211, 213, 207, 1)"></path><path d="M1111.79 291.43a0.98 0.98 0 1 0-1.94 0.28z" fill="rgba(211, 213, 207, 1)"></path><path d="M160.58 21.37L210.14 21.37L210.14 70.93L160.58 70.93z" stroke="rgba(211, 213, 207, 1)"></path><path d="M902.12 234.72a28.92 28.92 0 1 0-52.69-23.87z" stroke="rgba(211, 213, 207, 1)"></path><path d="M257.4 281.75a52.66 52.66 0 1 0 84.96 62.24z" fill="rgba(26, 119, 145, 1)"></path><path d="M234.06 539.83L278.92 539.83L278.92 584.69L234.06 584.69z" stroke="rgba(26, 119, 145, 1)"></path><path d="M1277.02 227.23 a41.53 41.53 0 1 0 83.06 0 a41.53 41.53 0 1 0 -83.06 0z" fill="rgba(26, 119, 145, 1)"></path><path d="M85.96 304.17L99.09 304.17L99.09 354.47L85.96 354.47z" fill="rgba(248, 153, 32, 1)"></path><path d="M393.86 164.89a3.57 3.57 0 1 0 7.14-0.18z" stroke="rgba(248, 153, 32, 1)"></path></g><defs><mask id="SvgjsMask3186"><rect width="1440" height="560" fill="#ffffff"></rect></mask><linearGradient x1="50%" y1="100%" x2="50%" y2="0%" gradientUnits="userSpaceOnUse" id="SvgjsLinearGradient3187"><stop stop-color="rgba(210, 227, 232, 1)" offset="0"></stop><stop stop-color="rgba(255, 255, 255, 1)" offset="0.38"></stop></linearGradient></defs></svg>