<?xml version="1.0" encoding="utf-8"?>
<!-- Generator: Adobe Illustrator 26.2.1, SVG Export Plug-In . SVG Version: 6.00 Build 0)  -->
<svg version="1.1" id="Layer_2" xmlns="http://www.w3.org/2000/svg" xmlns:xlink="http://www.w3.org/1999/xlink" x="0px" y="0px"
	 viewBox="0 0 612 369.5" style="enable-background:new 0 0 612 369.5;" xml:space="preserve">
<style type="text/css">
	.st0{fill:#F5A89E;}
	.st1{fill:#886D6A;}
	.st2{fill:#F5A99C;}
	.st3{fill:#EF8A72;}
	.st4{fill:#705755;}
	.st5{fill:#3DB25B;}
	.st6{fill:#FFFFFF;}
	.st7{fill:#FFB59D;}
	.st8{fill:#FFE8D9;}
	.st9{fill:#484242;}
	.st10{fill:#000100;}
	.st11{fill:#6B2818;}
	.st12{fill:#8D432C;}
	.st13{fill:#FFB59C;}
	.st14{fill:#FFD8CD;}
	.st15{fill:#AC6956;}
	.st16{fill:#CC0207;}
	.st17{opacity:0.4;}
	.st18{fill:#339949;}
	.st19{fill:#8C1167;}
	.st20{fill:#FFBD9C;}
	.st21{fill:#F8A58C;}
	.st22{fill:#FFC728;}
	.st23{fill:#DD9F07;}
	.st24{fill:#FFDBD2;}
	.st25{fill:#FE6C53;}
	.st26{fill:#FA9788;}
	.st27{fill:#615E5E;}
	.st28{fill:#EA917D;}
	.st29{fill:#FA0101;}
	.st30{opacity:0.3;}
	.st31{fill:#F9D895;}
	.st32{fill:#F3AE18;}
	.st33{fill:#A07112;}
	.st34{fill:#E28E88;}
	.st35{fill:#F4A79D;}
	.st36{fill:#BA4830;}
	.st37{fill:#DD705E;}
	.st38{fill:#FFBDA5;}
	.st39{fill:#F08B73;}
	.st40{fill:#FFDBCB;}
	.st41{fill:#323128;}
	.st42{fill:#4A4A4A;}
	.st43{fill:#FFB49C;}
	.st44{fill:#FFDED6;}
	.st45{fill:#313029;}
	.st46{fill:#DF6E5A;}
	.st47{fill:#1760EC;}
	.st48{fill:#012D43;}
	.st49{fill:#024A66;}
	.st50{fill:#12479B;}
</style>
<g>
	<g>
		<g>
			<path class="st0" d="M397.5,343c-7.9-9.9-12.9-101.2-13.6-115.3c-0.1-1.2-0.1-1.8-0.1-1.8l21.3,3.6l0,8.1l0,33.7
				C405.1,271.3,406,353.7,397.5,343z"/>
		</g>
		<g>
			<path class="st1" d="M450.3,337.1l10.5,19.7l55.2,0.1c-0.9-25.3-17-83.6-17-83.6s-92.7,0.3-95.3,3.3c-2.6,3-7.7,80.2-7.7,80.2
				l47.5,0.2L450.3,337.1z"/>
		</g>
		<g>
			<path class="st2" d="M549.5,244.4c0.1,13.9-4.6,30.3-21.5,43.3c-16.9,13-19.9,14.4-19.9,14.4s1.3,8.8-4.8,13.1
				c0,0-11.7-7.4-14.4-16.3c0,0,7.5-11.4,14.7-13.4c0,0,22-20.5,22.4-34.1c0.3-8.2-3-17.1-5.6-22.9c-1.7-3.8-3.1-6.3-3.1-6.3
				l23.7-11.6c0,0,0.7,1.7,1.7,4.4C545.2,221.8,549.4,234.6,549.5,244.4z"/>
		</g>
		<g>
			<path class="st3" d="M545.3,221.2c-5.5,6.6-16.5,11.3-22.3,13.4c-1.7-3.8-3.1-6.3-3.1-6.3l23.7-11.6
				C543.5,216.8,544.3,218.5,545.3,221.2z"/>
		</g>
		<g>
			<path class="st3" d="M404.4,234.2l0,8.1c-11.4,0.6-18.1-5.7-21.2-9.9c-0.1-1.2-0.1-1.8-0.1-1.8L404.4,234.2z"/>
		</g>
		<g>
			<path class="st4" d="M451,336.4l-1.1-0.8c-0.1-0.1-2.1-1.5-7.1-6c-3.4-3-4.2-19-4.5-24.2c-0.5-10.4-0.5-20.3-0.5-20.4
				c0-0.3,0.3-0.6,0.6-0.6c0,0,0,0,0,0c0.3,0,0.6,0.3,0.6,0.6c-0.1,10.9,0.5,40.1,4.5,43.7c3,2.6,4.9,4.2,5.9,5.1
				c-0.5-7.6-2.8-42.5-2.3-46.5c0-0.3,0.4-0.6,0.7-0.5c0.3,0,0.6,0.4,0.5,0.7c-0.5,4.3,2.3,47.2,2.4,47.7L451,336.4z"/>
		</g>
		<g>
			<path class="st4" d="M508.8,319.7c-0.1,0-0.2,0-0.3-0.1c-0.2-0.1-24.8-13.8-25.4-37.8c0-0.3,0.3-0.6,0.6-0.6
				c0.3,0,0.6,0.3,0.6,0.6c0.6,23.3,24.5,36.6,24.7,36.7c0.3,0.2,0.4,0.5,0.3,0.9C509.2,319.6,509,319.7,508.8,319.7z"/>
		</g>
		<g>
			<path class="st5" d="M478.5,128l0.7,2.8c0.1,0.2,0.2,0.5,0.5,0.6c3.6,1.7,33.3,15.9,39.9,19.6c6.6,3.7,24.6,56.8,26.6,62.5
				c0.1,0.3,0,0.7-0.2,0.9c-16,15.4-31.9,14.7-34.9,14.4c-0.3,0-0.6-0.2-0.7-0.5l-3-6.8c-0.3-0.8-1.5-0.6-1.6,0.2l-5.9,48.3
				c0,0,0,0.1,0,0.1v7.5c0,0.1,0,0.3-0.1,0.4c-0.6,1.1-4.7,6.1-32.3,13.4c-29.3,7.7-58.4-7.8-62.4-10c-0.3-0.2-2.2-0.8-2.2-1.1
				l1.5-6.6c0,0,0,0,0,0l-0.1-37.5c0-0.5-0.4-0.9-0.9-0.8c-15.4,1.3-28.9-8.6-31.5-10.6c-0.3-0.2-0.4-0.6-0.3-0.9
				c1.5-5.1,13.2-43.8,15.3-53.3c2.2-10.1,7.5-16.4,10.6-18.1c2.9-1.6,29.1-18.6,32.5-20.9c0.2-0.2,0.4-0.4,0.5-0.7l0.5-2.1"/>
		</g>
		<g>
			<path class="st5" d="M455.7,135"/>
		</g>
		<g>
			<path class="st6" d="M500.4,271.4v6.4c0,0-0.9,5.3-32.4,13.6c-31.5,8.3-65.3-10.9-65.3-10.9l1.5-7c0,0,27.2,13.9,52,10.7
				C476.2,281.6,494.2,274.1,500.4,271.4z"/>
		</g>
		<g>
			<g>
				<g>
					<path class="st7" d="M478.8,128.2c0,0-10.2,9.4-24.2,8.4c-11.7-0.9-19.8-3-24.6-5.9c-0.9-0.6-1.7-1.2-2.4-1.8
						c0,0,3.5-1.7,6.9-4c2.9-2.1,5.8-4.8,5.9-7.4c0.4-5.6,0-14.4,0-14.4h26.9c0,0-1.6,11.1,0.1,14.6c0.6,1.3,1.7,2.9,3,4.4
						c0.8,0.9,1.7,1.9,2.7,2.8C474.8,126.4,476.8,127.6,478.8,128.2z"/>
				</g>
			</g>
			<g>
				<g>
					<path class="st3" d="M470.5,122.1c-18.9,4.2-29.9-19-29.9-19h26.9c0,0-1.6,11.1,0.1,14.6C468.1,119,469.2,120.6,470.5,122.1z"
						/>
				</g>
			</g>
			<g>
				<g>
					<path class="st8" d="M441.4,119.9c-1.2,4.5-11.1,10.8-11.1,10.8l-0.2,0c-0.9-0.6-1.7-1.2-2.4-1.8c0,0,3.5-1.7,6.9-4
						c2.9-2.1,5.8-4.8,5.9-7.4c0.4-5.6,0-14.4,0-14.4h0.8C441.7,107.1,442.3,116.4,441.4,119.9z"/>
				</g>
			</g>
			<g>
				<g>
					<path class="st6" d="M478.8,128.2c-0.3-0.1-0.2,0.4-2.7,2.1c-1.7,1.2-3.9,2.3-4.3,2.6c-12.4,6.8-32.7,4.7-44-3.9
						c2.4-1.3,4.7-2.6,6.9-4.1c0.1-0.1,2.9,1.9,3.2,2.1c1.2,0.7,2.5,1.3,3.9,1.7c2.7,1,5.4,1.5,8.3,1.6c5.6,0.2,11.5,0.4,16.9-1.5
						c2.3-0.8,4.4-2.3,6.3-3.8C474.8,126.4,476.8,127.6,478.8,128.2z"/>
				</g>
			</g>
			<g>
				<g>
					<g>
						<g>
							<path d="M455,89.5c-16,0-29-13.4-29-30s13-30,29-30c16,0,29,13.4,29,30S471,89.5,455,89.5z M455,30.8
								c-15.3,0-27.7,12.9-27.7,28.7s12.4,28.7,27.7,28.7s27.7-12.9,27.7-28.7S470.3,30.8,455,30.8z"/>
						</g>
					</g>
				</g>
			</g>
			<g>
				<g>
					<ellipse class="st9" cx="484.6" cy="76.3" rx="4.6" ry="5.6"/>
				</g>
			</g>
			<g>
				<g>
					<ellipse class="st9" cx="425.7" cy="76.3" rx="4.6" ry="5.6"/>
				</g>
			</g>
			<g>
				<g>
					<path class="st10" d="M476.4,62.8h4.1c3.9,0,6.7,3.7,5.8,7.6l-2.5,11c-0.7,3-3.2,5.1-6.2,5.1h-1.3V62.8z"/>
				</g>
			</g>
			<g>
				<g>
					<path class="st10" d="M433.8,62.8h-4.1c-3.9,0-6.7,3.7-5.8,7.6l2.5,11c0.7,3,3.2,5.1,6.2,5.1h1.3V62.8z"/>
				</g>
			</g>
			<g>
				<g>
					<path class="st11" d="M485.1,56.8c-0.9-0.5-3.4,0.4-3.4,0.4c1.3,5.5-2.9,21.1-2.9,21.1H433c0,0-5.1-11.2-4.5-24.7
						c0.6-13.5,13-19.2,21.1-19.2c8.1,0,11.8-5.7,12-5.9c0,0,0,0,0,0c2.6,1.9,1.2,5.1,1.2,5.1c2.2,0.7,6.3-0.7,6.3-0.7l-0.1,2.5
						c9.8,2.5,12.2,12.9,12.6,16C481.9,54.7,486,57.3,485.1,56.8z"/>
				</g>
			</g>
			<g>
				<g>
					<path class="st12" d="M461.5,28.6c-0.3,0.5-0.4,1.4-0.7,2c-0.3,0.6-0.7,1.2-1.2,1.7c-1,1.1-2.3,1.8-3.6,2.4
						c-6,2.7-14.1,2-18.7,7.2c-4,4.5-6.2,9.5-6.4,15.5c-0.2,4.9,0.3,9.9,1,14.7c0.3,1.8,0.2,4.3,1,6c0,0-5.1-11.2-4.5-24.7
						c0.6-13.5,13-19.2,21.1-19.2C457.6,34.5,461.4,28.8,461.5,28.6z"/>
				</g>
			</g>
			<g>
				<g>
					<path class="st13" d="M475.4,96.6c-4,6.1-6.7,9.7-12,11.8c-0.4,0.1-0.8,0.3-1.1,0.4c-5.2,1.8-12,2.3-17.9-1.7
						c-6.3-4.3-12.8-14.3-12.8-23.4c0-9.1,0.2-12.1,1-14.6c0.7-2.5,6.1-21.3,7.5-20.7c0,0,0.3,0.3,0.9,0.8c2.3,1.9,8.8,6.7,17.4,6
						c0,0-2.4-3-1.5-4.9c0,0,4.7,8.9,17.1,7.1c0,0,4.7,16.1,4.8,18.6C478.8,78.3,479.4,90.5,475.4,96.6z"/>
				</g>
			</g>
			<g>
				<g>
					<path class="st14" d="M462.2,108.8c-5.2,1.8-12,2.3-17.9-1.7c-6.3-4.3-12.8-14.3-12.8-23.4c0-9.1,0.2-12.1,1-14.6
						c0.7-2.5,6.1-21.3,7.5-20.7c0,0,0.3,0.3,0.9,0.8c-2.9,4.8-4.7,10.6-5.8,16c-1.3,6.5-0.8,13.2,0.4,19.6c1,5.6,2.3,11.5,5.6,16.3
						c0,0,0,0,0,0C445.9,108.1,454.5,108.8,462.2,108.8z"/>
				</g>
			</g>
			<g>
				<g>
					<path class="st11" d="M438,64.3c0,0,2.8-1.5,5.2-2.1s8.1-0.6,9.1,0.8c0.9,1.3-0.4,2.2-0.4,2.2L438,64.3z"/>
				</g>
			</g>
			<g>
				<g>
					<path class="st11" d="M459.1,64.9c0,0-1.1-2.2,2-3.1c3.2-0.9,10.6,0.6,12.2,2.2L459.1,64.9z"/>
				</g>
			</g>
			<g>
				<g>
					<ellipse class="st9" cx="446.5" cy="71.2" rx="1.4" ry="1.8"/>
				</g>
			</g>
			<g>
				<g>
					<ellipse class="st9" cx="464.3" cy="71.2" rx="1.4" ry="1.8"/>
				</g>
			</g>
			<g>
				<g>
					<g>
						<path class="st15" d="M456,94.2c-2.7,0-4.7-1.2-4.7-1.2c-0.3-0.2-0.4-0.6-0.2-0.9c0.2-0.3,0.6-0.4,0.9-0.2
							c0.2,0.1,5.5,3.1,9.7-1.6c0.2-0.3,0.6-0.3,0.9-0.1c0.3,0.2,0.3,0.6,0.1,0.9C460.4,93.5,458,94.2,456,94.2z"/>
					</g>
				</g>
			</g>
			<g>
				<g>
					<g>
						<path class="st15" d="M455.4,87.3c-0.7,0-1.4-0.1-2.1-0.4c-0.8-0.3-1.3-0.8-1.4-1.4c-0.1-0.5,0-1.1,0.2-1.5
							c0.7-2.1,1.2-4.3,1.6-7.1c0.3-2.1,0.6-4.3,0.9-6.6c0-0.2,0.2-0.4,0.5-0.4c0.2,0,0.4,0.2,0.4,0.5c-0.3,2.3-0.5,4.5-0.9,6.6
							c-0.4,2.8-0.9,5.1-1.7,7.2c-0.1,0.4-0.2,0.7-0.2,1c0.1,0.4,0.6,0.6,0.9,0.8c1,0.4,2,0.4,3,0.2c0.4-0.1,1.7-0.6,1.8-1.8
							c0-0.2,0.2-0.4,0.4-0.4c0.2,0,0.4,0.2,0.4,0.4c-0.1,1.4-1.3,2.2-2.4,2.5C456.4,87.2,455.9,87.3,455.4,87.3z"/>
					</g>
				</g>
			</g>
			<g>
				<g>
					<path class="st16" d="M449.5,63.7h-12c-2.8,0-5.1,2.3-5.1,5.1v1.2c0,6.1,5,11.1,11.1,11.1h0c6.1,0,11.1-5,11.1-11.1v-1.2
						C454.6,66,452.4,63.7,449.5,63.7z M453.1,70.4c0,5.3-4.3,9.5-9.5,9.5h0c-5.3,0-9.5-4.3-9.5-9.5v-1c0-2.4,2-4.4,4.4-4.4h10.3
						c2.4,0,4.4,2,4.4,4.4V70.4z"/>
				</g>
			</g>
			<g>
				<g>
					<path class="st16" d="M473.5,63.7h-12c-2.8,0-5.1,2.3-5.1,5.1v1.2c0,6.1,5,11.1,11.1,11.1h0c6.1,0,11.1-5,11.1-11.1v-1.2
						C478.6,66,476.3,63.7,473.5,63.7z M477,70.4c0,5.3-4.3,9.5-9.5,9.5h0c-5.3,0-9.5-4.3-9.5-9.5v-1c0-2.4,2-4.4,4.4-4.4h10.3
						c2.4,0,4.4,2,4.4,4.4V70.4z"/>
				</g>
			</g>
			<g>
				<g>
					<rect x="454.4" y="68.6" class="st16" width="2" height="1.4"/>
				</g>
			</g>
			<g class="st17">
				<g>
					<path class="st6" d="M438.4,65h10.3c2.4,0,4.4,2,4.4,4.4v1c0,5.3-4.3,9.5-9.5,9.5h0c-5.3,0-9.5-4.3-9.5-9.5v-1
						C434,66.9,436,65,438.4,65z"/>
				</g>
			</g>
			<g class="st17">
				<g>
					<path class="st6" d="M462.3,65h10.3c2.4,0,4.4,2,4.4,4.4v1c0,5.3-4.3,9.5-9.5,9.5h0c-5.3,0-9.5-4.3-9.5-9.5v-1
						C457.9,66.9,459.9,65,462.3,65z"/>
				</g>
			</g>
		</g>
		<g>
			<polygon class="st6" points="461.7,180.9 462.8,206.6 479.6,214.4 493.3,205.7 493.9,180.9 			"/>
		</g>
		<g>
			<path class="st18" d="M505.7,221.4c0,0-0.1,0-0.1,0c-0.3-0.1-0.6-0.4-0.5-0.7l10-54.2c0.1-0.3,0.4-0.6,0.7-0.5
				c0.3,0.1,0.6,0.4,0.5,0.7l-10,54.2C506.2,221.2,506,221.4,505.7,221.4z"/>
		</g>
		<g>
			<path class="st18" d="M404.2,236.2C404.2,236.2,404.2,236.2,404.2,236.2c-0.4,0-0.7-0.3-0.6-0.7c1.5-15.2-8.2-66-8.3-66.5
				c-0.1-0.3,0.2-0.7,0.5-0.7c0.3-0.1,0.7,0.2,0.7,0.5c0.4,2.1,9.8,51.4,8.3,66.8C404.8,236,404.5,236.2,404.2,236.2z"/>
		</g>
		<g>
			<path class="st18" d="M508.1,221.4c-0.3,0-0.6-0.2-0.6-0.6c0-0.3,0.2-0.6,0.6-0.7c0.2,0,22.6-2,35.4-15.5c0.2-0.3,0.6-0.3,0.9,0
				c0.3,0.2,0.3,0.6,0,0.9C531.2,219.4,508.4,221.4,508.1,221.4C508.2,221.4,508.1,221.4,508.1,221.4z"/>
		</g>
		<g>
			<path class="st18" d="M404.4,227.6C404.3,227.6,404.3,227.6,404.4,227.6c-1.2-0.2-27.1-4.4-31.8-12.7c-0.2-0.3-0.1-0.7,0.2-0.9
				c0.3-0.2,0.7-0.1,0.9,0.2c4.4,7.9,30.6,12.1,30.9,12.1c0.3,0.1,0.6,0.4,0.5,0.7C404.9,227.4,404.7,227.6,404.4,227.6z"/>
		</g>
	</g>
	<g>
		<g>
			<g>
				<path class="st19" d="M201.3,76.5c0,0,7.9-4.3,2.8-12.1c-5-7.8-18.3-8-18.3-8s2.7-1.8,0.3-9.8c-2.4-7.9-12.7-14.3-17.7-15.9
					c-5-1.6-8.7,4-8.7,4c-5.1-6-11.2-4.1-20.4,3.7c-9.2,7.8-6.2,17.6-6.2,17.6c-23.7-0.4-13.3,15.3-13.3,15.3
					c-4,3.5,0.4,4.7,0.4,4.7s-6.9,0.8-4.3,10.7c2.6,10,12.6,8.8,12.6,8.8c0.9,3,4.3,2.7,4.3,2.7c-2.1,18.4,19,10.3,19,10.3l17.7-0.6
					c0,0,3.6,3.3,16,1.8c12.3-1.5,2.2-12,2.2-12c7.4,0.7,4.1-2.4,4.1-2.4s10.2,3.7,13.7-4.7C210.6,78.8,201.3,76.5,201.3,76.5z
					 M118.4,62.8c0,0,2.8-6.7,14.9-5.7C133.3,57.2,124.1,57.7,118.4,62.8z M190.9,104c1.6,4.3-4.4,5.2-4.4,5.2
					c4.8-4.6,0.8-11,0.8-11S189.6,100.7,190.9,104z M199.9,75.5c0,0,4.5-4.8,4.5-9.5c0,0,3.1,6.4-3.5,10.1
					C199.5,76.9,199.9,75.5,199.9,75.5z"/>
			</g>
			<g>
				<path class="st20" d="M194.8,121.5l-21.7,19.3h-18.3l-27.9-19.6c0,0,16.7-4.3,21.4-9.3c4.7-5,2.1-18.4,2.1-18.4l4.4-0.3
					l16.3-1.1c0,0-0.1,7.7,0.1,13.5c0.1,1.9,0.2,3.6,0.4,4.8C172.3,115.4,194.8,121.5,194.8,121.5z"/>
			</g>
			<g>
				<path class="st21" d="M171.2,105.6c-6.4-3.2-16-8.7-16.4-12.4l16.3-1.1C171.1,92.1,171,99.8,171.2,105.6z"/>
			</g>
			<g>
				<path class="st20" d="M186.2,71.4c0,1.1-0.2,2-0.5,2.8c-1.1,2.7-3.6,3.8-4.7,4.2c-0.3,0.1-0.5,0.1-0.5,0.1s-3.2,6.4-6.4,11.2
					c0,0,0,0,0,0c-0.2,0.3-0.4,0.6-0.6,0.9c-0.9,1.3-1.8,2.5-2.6,3.3c-2.2,2.2-5.5,4.8-10.1,4.9c-2.3,0-4.9-0.5-7.8-2.1
					c-0.1,0-0.1-0.1-0.2-0.1c-0.8-0.4-1.6-0.9-2.4-1.5c-8-5.5-10.2-16.6-11-23.9c0-0.2-0.1-0.4-0.1-0.6c-0.2-1.8-0.3-3.3-0.5-4.5v0
					c-0.7-5.8-0.3-8.2,0.7-14.3c0.4-2.8,1.4-6.3,3.9-9.2c2.8-3.4,7.7-6.1,15.9-6.1c0,0,11.3-1.7,17.7,6.4c6.5,8.1,4.1,23.5,4.1,23.5
					S186.2,65.7,186.2,71.4z"/>
			</g>
			<g>
				<path class="st22" d="M181.1,66.4c0,0-7.8-17.5-24.4-15c-10.8,1.7-17.8,14.7-17.8,14.7c-0.7-5.8-0.3-8.3,0.7-14.3
					c0.9-6.1,4.5-15.3,19.7-15.3c0,0,11.3-1.7,17.7,6.4C183.5,51,181.1,66.4,181.1,66.4z"/>
			</g>
			<g>
				<path class="st20" d="M141.4,78.7c0,0-4,1.3-6-3.9c-2.1-5.3-1.6-9,4.1-8L141.4,78.7z"/>
			</g>
			<g>
				<path class="st23" d="M161.8,36.9c3.6,0,10.4,0.8,14.7,6.3c3.2,4,4.1,10.1,4.3,14.5c0.1,2.8,0,5.3-0.2,6.9
					c-0.8-1.5-2.3-3.8-4.5-6.1c-4.7-5.1-10.3-7.8-16.3-7.8c-1.1,0-2.2,0.1-3.3,0.3c-5.8,0.9-10.4,4.9-13.3,8.2
					c-1.9,2.1-3.3,4.1-4.1,5.4c-0.4-4.6,0-7.2,0.8-12.5c1.5-9.8,8-14.8,19.2-14.8l0,0l0,0C159.4,37.1,160.3,36.9,161.8,36.9
					L161.8,36.9 M161.8,36.4c-1.6,0-2.6,0.2-2.6,0.2c-15.3,0-18.8,9.2-19.7,15.3c-0.9,6.1-1.3,8.5-0.7,14.3c0,0,7-13,17.8-14.7
					c1.1-0.2,2.2-0.3,3.2-0.3c14.3,0,21.1,15.2,21.1,15.2s2.4-15.5-4.1-23.5C172.5,37.2,165.6,36.4,161.8,36.4L161.8,36.4z"/>
			</g>
			<g>
				<ellipse class="st21" cx="170.1" cy="75.6" rx="4.1" ry="3"/>
			</g>
			<g>
				<ellipse class="st21" cx="150.9" cy="75.6" rx="4.1" ry="3"/>
			</g>
			<g>
				<path class="st20" d="M141.4,78.7c0,0-4,1.3-6-3.9c-2.1-5.3-1.6-9,4.1-8L141.4,78.7z"/>
			</g>
			<g>
				<g>
					<path class="st24" d="M171.1,92.8c0.5-0.5,1.5-1.3,2.4-2.2c-0.9,1.3-1.8,2.5-2.6,3.3c-2.2,2.2-5.5,4.8-10.1,4.9
						c-2.5,0-5.1-0.7-7.8-2.1c-0.1,0-0.1-0.1-0.2-0.1c-0.9-0.4-1.7-0.9-2.6-1.5c-8.1-5.3-10-16.4-10.9-23.9c0-0.2-0.1-0.4-0.1-0.6
						c-0.1-1.4-0.3-2.7-0.4-3.7c-0.1-0.7,0-0.3-0.1-0.8l0.6-0.8c0.1,0.5,0.3,1.8,0.4,2.5c0.7,6.5,2.1,20.1,11.3,26.2
						C158.6,98.9,165.2,98.5,171.1,92.8z"/>
				</g>
			</g>
			<g>
				<path class="st25" d="M138.5,76.6l-2.7,9c-0.5,1.6,0.7,3.3,2.4,3.3l0,0c1.6,0,2.8-1.5,2.5-3.1L138.5,76.6z"/>
			</g>
			<g>
				<path class="st25" d="M180.4,77l-3.4,8.8c-0.6,1.6,0.5,3.3,2.2,3.4h0c1.6,0.1,2.9-1.3,2.7-2.9L180.4,77z"/>
			</g>
			<g>
				<circle class="st26" cx="138.5" cy="86.5" r="1.1"/>
			</g>
			<g>
				<circle class="st26" cx="180" cy="86.8" r="1.1"/>
			</g>
			<g>
				<g>
					<path class="st19" d="M147.8,62.6c-0.1,0-0.1,0-0.2,0c-0.2-0.1-0.3-0.3-0.2-0.5c0,0,1.6-5.5,8.6-2.9c0.2,0.1,0.3,0.2,0.3,0.4
						c0,0.2-0.2,0.3-0.4,0.3c-5.8-1.3-7.7,2.3-7.8,2.5C148,62.6,147.9,62.6,147.8,62.6z"/>
				</g>
			</g>
			<g>
				<g>
					<path class="st19" d="M173,63c-0.1,0-0.3-0.1-0.3-0.2c-1.3-3.5-7.2-3.1-7.3-3.1c-0.2,0-0.4-0.1-0.4-0.3c0-0.2,0.1-0.4,0.3-0.4
						c0.3,0,6-1.6,8,3.5c0.1,0.2,0,0.4-0.2,0.5C173.1,62.9,173.1,63,173,63z"/>
				</g>
			</g>
			<g>
				<ellipse class="st27" cx="151.3" cy="66.4" rx="1.1" ry="1.3"/>
			</g>
			<g>
				<ellipse class="st27" cx="168.5" cy="66.4" rx="1.1" ry="1.3"/>
			</g>
			<g>
				<g>
					<path class="st28" d="M160.4,80c-0.9,0-1.8-0.2-2.3-0.9c-0.5-0.6-0.5-1.5,0-2.7c1.3-2.9,0.8-8.6,0.8-8.7c0-0.2,0.1-0.3,0.3-0.3
						c0.1,0,0.3,0.1,0.3,0.3c0,0.2,0.4,5.9-0.9,9c-0.4,0.9-0.4,1.6,0,2.1c0.6,0.7,2,0.8,3.1,0.5c0.1,0,0.3,0.1,0.3,0.2
						c0,0.1-0.1,0.3-0.2,0.3C161.3,79.9,160.9,80,160.4,80z"/>
				</g>
			</g>
			<g>
				<path class="st6" d="M159.8,86.8c-3.9,0-8-4.2-6.5-4.6c1.5-0.3,4.5,0.8,7.2,0.5c2.7-0.3,6.1-1,6.4-0.6
					C167.3,82.6,164.3,86.8,159.8,86.8z"/>
			</g>
			<g>
				<path class="st29" d="M172.1,61.5h-2.9c-4,0-7.2,3.2-7.2,7.2v0c0,4,3.2,7.2,7.2,7.2h2.9c4,0,7.2-3.2,7.2-7.2v0
					C179.4,64.8,176.1,61.5,172.1,61.5z M178.3,69.2c0,3.3-2.6,5.9-5.9,5.9h-3.3c-3.3,0-5.9-2.6-5.9-5.9v-0.7c0-3.3,2.6-5.9,5.9-5.9
					h3.3c3.3,0,5.9,2.6,5.9,5.9V69.2z"/>
			</g>
			<g>
				<path class="st29" d="M151.5,61.6h-2.9c-4,0-7.2,3.2-7.2,7.2v0c0,4,3.2,7.2,7.2,7.2h2.9c4,0,7.2-3.2,7.2-7.2v0
					C158.8,64.8,155.5,61.6,151.5,61.6z M157.7,69.2c0,3.3-2.6,5.9-5.9,5.9h-3.3c-3.3,0-5.9-2.6-5.9-5.9v-0.7c0-3.3,2.6-5.9,5.9-5.9
					h3.3c3.3,0,5.9,2.6,5.9,5.9V69.2z"/>
			</g>
			<g>
				<path class="st29" d="M158,66.4c0,0,2.1-1.1,4.8,0l-0.3,1.2c0,0-2-1.1-4,0L158,66.4z"/>
			</g>
			<g>
				<path class="st29" d="M177.1,63.9l2.9,0.5c0.6,0.1,1,0.6,1,1.1l0,0.2c0,0.4-0.2,0.8-0.5,1l-1.5,1.1L177.1,63.9z"/>
			</g>
			<g>
				<path class="st29" d="M144.4,63.4l-4.1,0.6c-0.4,0.1-0.7,0.3-0.9,0.7l0,0.1c-0.1,0.4,0,0.9,0.3,1.2l2.1,2L144.4,63.4z"/>
			</g>
			<g class="st30">
				<path class="st6" d="M172.4,75.1h-3.3c-3.3,0-5.9-2.6-5.9-5.9v-0.7c0-3.3,2.6-5.9,5.9-5.9h3.3c3.3,0,5.9,2.6,5.9,5.9v0.7
					C178.3,72.5,175.7,75.1,172.4,75.1z"/>
			</g>
			<g class="st30">
				<path class="st6" d="M151.8,75.1h-3.3c-3.3,0-5.9-2.6-5.9-5.9v-0.7c0-3.3,2.6-5.9,5.9-5.9h3.3c3.3,0,5.9,2.6,5.9,5.9v0.7
					C157.7,72.4,155,75.1,151.8,75.1z"/>
			</g>
			<g>
				<g>
					<path class="st19" d="M150.7,47.4c-1.7,0-3.3-0.6-4-2.2c-0.7-1.9,0-4.3,1.6-5.6c-0.1-0.4-0.2-0.8-0.2-1.3
						c0-0.2,0.2-0.4,0.4-0.4c0.2,0,0.4,0.2,0.4,0.4c0,0.1,0,0.5,0.1,0.8c0.9-0.5,2.4-0.8,3.2,0c0.6,0.5,0.5,1,0.4,1.2
						c-0.3,0.8-1.6,1.2-2.3,1.2c-0.9,0-1.4-0.5-1.8-1.2c-1.2,1.1-1.8,3.1-1.2,4.6c0.8,2.2,4.2,1.7,4.8,1.6c0.2,0,0.4,0.1,0.4,0.3
						c0,0.2-0.1,0.4-0.3,0.4C151.8,47.3,151.3,47.4,150.7,47.4z M149.2,39.8c0.2,0.5,0.6,0.9,1.2,0.9c0.5,0,1.4-0.4,1.6-0.8
						c0,0,0.1-0.2-0.2-0.4C151.1,39.1,149.9,39.4,149.2,39.8z"/>
				</g>
			</g>
		</g>
		<g>
			<path class="st31" d="M157.2,40.3c0,0-1.1-1.5-2.4-0.4c-1.4,1.1,1,4.4,2.4,4.5c1.4,0.1,3.3-2.8,3-4
				C159.9,39.3,157.5,39,157.2,40.3z"/>
		</g>
		<g>
			<path class="st31" d="M166.1,40.7c0,0-3.2-1.1-2.9,1.2s4.3,2.6,4.3,2.6s3-2.8,1.3-4.9C167.2,37.6,166.1,40.7,166.1,40.7z"/>
		</g>
		<g>
			<path class="st31" d="M161.6,45.1c0,0-1.1-1.3-1.7-0.5c-0.7,0.7-0.2,2.8,1.2,3.6c1.5,0.8,2.9-1.7,2.9-2.6S161.6,45.1,161.6,45.1z
				"/>
		</g>
		<g>
			<path class="st31" d="M172,46.1c0,0-0.6-1.1-1.7-0.9c-1.1,0.2-2.8,2.9,1.1,4.8c2.9-1.1,3.9-2.1,3.4-3.7S172,46.1,172,46.1z"/>
		</g>
		<g>
			<path class="st31" d="M178.2,46l-0.5,0.9c0,0-1.7-0.7-1.9,0.6s0.7,2.1,3.5,2.1L178.2,46z"/>
		</g>
		<g>
			<path class="st31" d="M177.5,53.3c0,0-1.9-0.3-1.8,1.8c0.2,2.1,3.8,0.8,3.8,0.8s1.6-2.6,0.3-3.6
				C178.6,51.2,177.5,53.3,177.5,53.3z"/>
		</g>
		<g>
			<path class="st31" d="M181.1,58.3v3.2c0,0-1.7-1-1.4-2.4C180,57.7,181.1,58.3,181.1,58.3z"/>
		</g>
		<g>
			<path class="st31" d="M158.7,36.9h4.8c0,0-0.5,2-2.4,2.5C159.2,40,158.7,36.9,158.7,36.9z"/>
		</g>
		<g>
			<path class="st31" d="M172.7,40c0,0,3.6,1.9,4.3,3.9c0,0-1.7,1.2-3.5,0C171.7,42.7,172.7,40,172.7,40z"/>
		</g>
		<g>
			<path class="st31" d="M152.2,45.2c0,0-1.2-2-2.5-1.1c-1.3,0.9-0.5,3.6,1.6,5.1c0,0,3.9-0.9,3.7-3.6
				C154.8,43,152.2,45.2,152.2,45.2z"/>
		</g>
		<g>
			<path class="st31" d="M145.9,49.2c0,0-1-2.2-2.4-1.2c-1.3,1-1,3.7,0.3,4.8c1.2,1.1,4.8-0.8,4.3-2.5
				C147.7,48.5,145.9,49.2,145.9,49.2z"/>
		</g>
		<g>
			<path class="st31" d="M141.7,60.5c0,0-3-4.4-0.4-5.7c2.6-1.3,2.7,1.6,2.7,1.6s1.2-0.8,2,0L141.7,60.5z"/>
		</g>
		<g>
			<path class="st31" d="M150.3,53.1c0,0-0.8-1.9,0.6-2.7s2.5,0.4,2.5,0.4s0.8-1.2,2.2-0.7c1.4,0.4,0.8,0.8,0.8,0.8
				S150.8,52.4,150.3,53.1z"/>
		</g>
		<g>
			<path class="st31" d="M141.7,46.3c0,0,1.2-3,3.9-4.6c0,0-0.5,2.2,0.2,2.6C146.5,44.7,147.5,47.5,141.7,46.3z"/>
		</g>
		<g>
			<path class="st31" d="M169.2,52c0,0,1.8-0.4,2.3,0c0,0,0.2-1.1,1.2-1.4s1.5,1.4,0.2,3.7C173,54.3,170.2,54.8,169.2,52z"/>
		</g>
		<g>
			<path class="st32" d="M226.2,288.2c0,0-13,2.6-17.2,1.7c-1.4-0.3-2.7-6.3-3.8-14.4c-1.4-9.9-2.6-22.7-3.4-31.7
				c-0.5-6.4-0.8-10.9-0.8-10.9l-3-30.5l-1.8,10.8l-2.2,12.9l-17.3,0l-15.3,0l-35.6,0.1l-7.2-36.4c0,0-1.3,5-3.8,11.6
				c-1.9,5.1-4.5,11.3-7.6,16.9c-4,7.2-9.1,13.5-14.9,16c-1.5,0.6-2.9,1.1-4.1,1.4c-10.5,2.6-14.5-4.4-14.2-12.4v0
				c0.1-1.8,0.4-3.8,0.9-5.6c1.2-4.5,5.4-17.6,10.2-31.9c3.9-11.4,8.2-23.6,11.8-33c2.9-7.4,5.3-13.1,6.8-15
				c2.3-3.2,5.9-6.4,9.6-9.2c5.3-4,10.9-6.9,13.8-7.3c0.9-0.1,3.5-0.2,7.3-0.2c7.9-0.1,20.7,0,32.6,0.2c8.3,0.1,16,0.2,21.3,0.3
				c4.1,0.1,6.7,0.1,6.7,0.1s11.3-0.9,15.3,8.4c1.7,3.9,3.6,9.4,5.4,15.7c2.5,8.9,4.9,19.7,6.1,30.3c0.1,0.5,0.1,1,0.2,1.6
				c0.8,7.3,1.4,16.5,1.8,25.7c0.7,12.5,1.1,24.8,1.6,31.9c0,0.8,0.1,1.5,0.1,2.2c0.5,6.9,0.8,24.7,0.9,37.4c0,5,0.1,9.1,0.1,11.5
				C226.2,287.4,226.2,288.2,226.2,288.2z"/>
		</g>
		<g>
			<path class="st31" d="M138.6,137.4c-0.3,7.4-2.6,7.2-12.4,4.1c-6.7-2.1-11-8.9-13.1-13c5.3-4,10.9-6.9,13.8-7.3
				c0.9-0.1,3.5-0.2,7.3-0.2C136.1,125.2,138.8,132.5,138.6,137.4z"/>
		</g>
		<g>
			<path class="st31" d="M88.1,235.7c-10.5,2.6-14.5-4.4-14.2-12.4v0c0.6-0.9,1.3-1.8,2.1-2.7c11.9-13.4,13.6,2.1,11.5,6.8
				C86.3,230,87.1,233.2,88.1,235.7z"/>
		</g>
		<g>
			<path class="st31" d="M114.8,201.5c-1.9,5.1-4.5,11.3-7.6,16.9c-1.1-3.4-2.8-7.6-4.9-9.3c-3.8-3-10.2-9.1-2.6-12.4
				C105,194.5,111.4,198.1,114.8,201.5z"/>
		</g>
		<g>
			<path class="st31" d="M176.7,226.2l-15.3,0c-0.8-3-3.1-6.9-9.2-7.8c-10.1-1.6-21.4-1.7-13.1-11.2c8.4-9.5,29.7-0.4,32.8,6.6
				C174.1,218.7,175.8,223.6,176.7,226.2z"/>
		</g>
		<g>
			<path class="st31" d="M188.1,121.4c-1.9,2.8-5.1,6.2-10.1,7c-5.9,1-9.4-3.8-11.2-7.3C175,121.3,182.8,121.4,188.1,121.4z"/>
		</g>
		<g>
			<path class="st31" d="M221.7,177.5c-4.6-10-14.2-16.5-21-19.4c-6.8-2.8-15.5-6.4-9.2-13.4c4.2-4.6,15.2-2.2,24,0.9
				c2.5,8.9,4.9,19.7,6.1,30.3C221.5,176.5,221.6,177,221.7,177.5z"/>
		</g>
		<g>
			<path class="st31" d="M225.1,235.1c-2.8,0.1-10.2-0.3-12.5-7.5c-2.8-8.9,2.8-19.6,10.9-24.4h0C224.2,215.6,224.6,228,225.1,235.1
				z"/>
		</g>
		<g>
			<path class="st31" d="M217.4,260.1c-1.7,5.4-7.7,11.4-12.3,15.4c-1.4-9.9-2.6-22.7-3.4-31.7c3.5-0.5,10-1.1,12.1,1.6
				C216.8,249,220.3,251,217.4,260.1z"/>
		</g>
		<g>
			<path class="st31" d="M226.2,286.1c-3.9-0.4-11.4-1.8-9.5-6.5c1.7-4.3,6.5-5,9.4-5C226.1,279.6,226.2,283.7,226.2,286.1z"/>
		</g>
		<g>
			<path class="st31" d="M103,182.3c-7,3.1-14.3,0.7-18,3.5c3.9-11.4,8.2-23.6,11.8-33c4.4,3.1,13.8,10.2,14.8,15.5
				C112.8,175.2,109.9,179.2,103,182.3z"/>
		</g>
		<g>
			<path class="st31" d="M197.9,202.4l-1.8,10.8c-1.8-2.7-5.3-7.3-8.8-9.6c-5.1-3.3-13.8-18.7-8.1-26.6c5.7-7.8,18.9-10.6,18.2-5.8
				c-0.7,4.8-9.8,9.8-6.7,17.9C193.8,197.4,197.9,202.4,197.9,202.4z"/>
		</g>
		<g>
			<path class="st33" d="M118.6,190.2c-0.3,0-0.6-0.2-0.6-0.6l-6-47.4c0-0.3,0.2-0.7,0.5-0.7c0.3,0,0.7,0.2,0.7,0.5l6,47.4
				C119.2,189.8,119,190.1,118.6,190.2C118.6,190.2,118.6,190.2,118.6,190.2z"/>
		</g>
		<g>
			<path class="st33" d="M198,201.1C198,201.1,198,201.1,198,201.1c-0.4,0-0.6-0.3-0.6-0.6c0.2-16.2,10.5-61.7,10.6-62.2
				c0.1-0.3,0.4-0.5,0.8-0.5c0.3,0.1,0.6,0.4,0.5,0.8c-0.1,0.5-10.3,45.8-10.6,61.9C198.7,200.8,198.4,201.1,198,201.1z"/>
		</g>
		<g>
			<path class="st34" d="M116.5,163.4c0,0,2.6-4.6,1.3-7.3s1.3-3,2.6-1.9s1.9,4.5,1.8,8.3C122.1,166.3,116.5,163.4,116.5,163.4z"/>
		</g>
		<g>
			<path class="st6" d="M131.3,184l-8.6-0.8c-1.7-0.1-3.1-1.5-3.3-3.2l-1.8-17.9c-0.1-1.1,0.3-2.3,1-3.2c0.8-0.9,1.9-1.3,3-1.3h8.8
				v2.5h-8.8c-0.5,0-0.9,0.2-1.2,0.5c-0.3,0.3-0.4,0.8-0.4,1.2l1.8,17.9c0.1,0.5,0.5,0.9,1,1l8.6,0.8L131.3,184z"/>
		</g>
		<g>
			<path class="st35" d="M105.2,179.2c0,0,0.8-19.9,18.7-17.3c0,0,2.8,1.7,0.4,3.4c0,0,2.7,0.2,1.5,4.1c0,0,2.6,1.6,1.1,3.8
				c0,0,2,2.9-0.7,3.2c-2.7,0.3-4.2-0.4-5,3.1c-0.8,3.5-0.9,8.3-5.3,8.7C116,188.2,106.3,182.8,105.2,179.2z"/>
		</g>
		<g>
			<path class="st6" d="M127.7,152.7l3.5,37.3c0,0,11.5,6.8,25.5,0l1.9-37.3H127.7z"/>
		</g>
		<g>
			<path class="st33" d="M84.9,210.3c-0.1,0-0.1,0-0.2-0.1c-0.1-0.1-0.2-0.3-0.1-0.4c0.2-0.2,18.8-23.8,20.2-30.6
				c0-0.2,0.2-0.3,0.4-0.2c0.2,0,0.3,0.2,0.2,0.4c-1.5,7-19.6,29.9-20.4,30.9C85.1,210.3,85,210.3,84.9,210.3z"/>
		</g>
		<g>
			<path class="st33" d="M116,188.9c-0.1,0-0.2,0-0.3-0.1c-1-0.6-10-5.7-11.1-9.4c-0.1-0.3,0.1-0.7,0.4-0.8c0.3-0.1,0.7,0.1,0.8,0.4
				c0.8,2.7,7.8,7.2,10.5,8.6c0.3,0.2,0.4,0.6,0.2,0.9C116.4,188.8,116.2,188.9,116,188.9z"/>
		</g>
		<g>
			<path class="st6" d="M127.7,152.7l3.5,37.3c0,0,11.5,6.8,25.5,0l1.9-37.3H127.7z"/>
		</g>
		<g>
			<path class="st33" d="M84.9,210.6c-0.1,0-0.3,0-0.4-0.1c-0.3-0.2-0.3-0.6-0.1-0.9c0.2-0.2,18.7-23.7,20.2-30.5
				c0.1-0.3,0.4-0.6,0.7-0.5c0.3,0.1,0.6,0.4,0.5,0.7c-1.5,7.1-19.6,30.1-20.4,31C85.3,210.6,85.1,210.6,84.9,210.6z"/>
		</g>
		<g>
			<path class="st28" d="M115.7,167.6c-0.2,0-0.3-0.1-0.5-0.2c-0.2-0.3-0.2-0.6,0-0.9c0.1-0.1,3.3-3,9.1-1.8
				c0.3,0.1,0.6,0.4,0.5,0.7c-0.1,0.3-0.4,0.6-0.7,0.5c-5.2-1.1-7.9,1.4-8,1.5C116,167.6,115.9,167.6,115.7,167.6z"/>
		</g>
		<g>
			<path class="st28" d="M117.7,172c-0.2,0-0.4-0.1-0.5-0.2c-0.2-0.3-0.2-0.7,0.1-0.9c0.2-0.1,4-3.4,8.7-2c0.3,0.1,0.5,0.4,0.4,0.8
				c-0.1,0.3-0.4,0.5-0.8,0.4c-4-1.2-7.4,1.7-7.5,1.7C118,172,117.9,172,117.7,172z"/>
		</g>
		<g>
			<path class="st28" d="M119.7,175.3c-0.1,0-0.3-0.1-0.4-0.2c-0.3-0.2-0.3-0.6-0.1-0.9c0.1-0.1,2.9-3.2,8-1.6
				c0.3,0.1,0.5,0.5,0.4,0.8c-0.1,0.3-0.5,0.5-0.8,0.4c-4.3-1.4-6.5,1.1-6.6,1.2C120,175.2,119.9,175.3,119.7,175.3z"/>
		</g>
		<g>
			<path class="st35" d="M214.8,326.2c0,0,10.6-10.5,10.3-18.3c-0.3-7.9-2.5-19.4-2.5-19.4l-10.7,1.8L214.8,326.2z"/>
		</g>
		<g>
			<path class="st36" d="M105.7,356.9h112c0,0,0.8-104.8-23.9-130.8c-49.8,0-68.2,0.1-68.2,0.1s-13.8,20.1-16.3,43.2
				S104,342,105.7,356.9z"/>
		</g>
		<g>
			
				<rect x="149.4" y="277.2" transform="matrix(0.9515 -0.3077 0.3077 0.9515 -77.6051 63.544)" class="st37" width="26.6" height="1.3"/>
		</g>
		<g>
			<rect x="162.1" y="277.9" class="st37" width="1.3" height="79.1"/>
		</g>
		<g>
			<rect x="122.5" y="230.9" class="st37" width="75.5" height="1.3"/>
		</g>
		<g>
			<path class="st37" d="M192.4,356.9c0-1.2-3.8-116.7-8.1-125.1l1.1-0.6c4.5,8.6,8.1,120.9,8.3,125.6L192.4,356.9z"/>
		</g>
		<g>
			<path class="st37" d="M133.2,356.9l-1.3,0c0.2-12.3,1.6-120.6,5.1-125.7l1,0.7C135.6,235.5,133.8,308.7,133.2,356.9z"/>
		</g>
	</g>
	<g>
		<g>
			<g>
				<g>
					<path class="st38" d="M331,117c-0.6,0.2-1.1,0.4-1.7,0.6c-4,1.3-1.6,12.2-5.7,13c-1,0.2-7.9,15.6-8.9,15.8
						c-6.9,1.3-14.8,0.9-21.8,0.1c-5-0.6-9.3-25.6-14.1-27.2c-1.6-0.5-3.1-1.1-4.7-1.8c16.2-4.7,13.6-23.5,13.6-23.5l1.4,0l3.8-0.1
						l23.8-0.8c-1.2,9.1,1,14.7,4.1,18.3C325,116.2,331,117,331,117z"/>
				</g>
			</g>
			<g>
				<g>
					<path class="st39" d="M320.7,111.2c-17.2-0.6-24.8-10.9-27.9-17.4l23.8-0.8C315.4,102,317.6,107.7,320.7,111.2z"/>
				</g>
			</g>
			<g>
				<g>
					<path class="st40" d="M278.8,119.3c-1.6-0.5-3.1-1.1-4.7-1.8c16.2-4.7,13.6-23.5,13.6-23.5l1.4,0
						C290.4,109.8,283.6,116.5,278.8,119.3z"/>
				</g>
			</g>
			<g>
				<g>
					<path class="st41" d="M340,73.9c2.1-6.6-1.1-9.6-1.1-9.6c3-8.4-1.3-11-1.3-11c1.8-14-6.5-20-6.5-20
						c0.7-18.7-15.8-18.7-15.8-18.7s-5.1-5.4-13.1-5.4S290,14.5,290,14.5C271.1,16.9,273,33.6,273,33.6c-10.6,5.5-6.8,16.8-6.8,16.8
						c-5.5,5.7,0.1,14,0.1,14c-7.4,3.9-1.6,11.4-1.6,11.4c-6.5,5.5,0,15.7,0,15.7c3.2,10.6,20.8,6.1,20.8,6.1s7.3,7.5,16.1,7.5
						c2.3,0,4.4-0.5,6.3-1.1c0,0,0,0,0,0c5.6-1.9,9.4-5.7,9.4-5.7c4.9,1.4,9.3-2,9.3-2C347.7,94.6,340,73.9,340,73.9z M276.4,22.7
						c-0.7,0.8-1.5,11-2.6,10.7C273.8,33.4,273.7,25.7,276.4,22.7z M270.8,36.5c0,0-2.7,8-1.6,11.9l-1.9,2
						C267.2,50.3,264.7,39.3,270.8,36.5z M263.6,68.4c1.3-3,3.1-3.5,3.1-3.5s-3.2,5.2-1.7,10.2C265,75.1,262.3,71.4,263.6,68.4z
						 M274.3,97.7c-2.5-0.4-8-2.2-8-5.1c0,0,6.7,4.6,14,4.6C280.4,97.3,276.8,98.1,274.3,97.7z M313.5,15.1
						c-0.9-1.9-5.5-3.8-5.5-3.8c3.5,0.4,6.8,3.7,6.8,3.7L313.5,15.1z M329.3,31.5c0.1-2.4-2.7-10.3-2.7-10.3
						c3.8,2.4,3.9,11.6,3.9,11.6L329.3,31.5z M336.8,52.4c0,0-2.3-2.6-2.8-2.8c0,0,2.3-5.1,1.7-7.9
						C335.7,41.7,337.9,48.1,336.8,52.4z"/>
				</g>
			</g>
			<g>
				<g>
					<path d="M267.9,26.5c-0.8,0-1.3-0.2-1.3-0.2c-0.2-0.1-0.3-0.3-0.2-0.5c0.1-0.2,0.3-0.3,0.4-0.2c0.1,0.1,3.6,1.2,7.5-3.9
						c2.4-3,5.1-5.5,7.7-7c3.2-1.8,6-2,8.2-0.5c0.2,0.1,0.2,0.3,0.1,0.5c-0.1,0.2-0.3,0.2-0.5,0.1c-4.1-2.8-10.4,1.7-14.9,7.4
						C272,25.8,269.4,26.5,267.9,26.5z"/>
				</g>
			</g>
			<g>
				<g>
					<path d="M331,98.7c-0.1,0-0.3-0.1-0.3-0.2c-0.1-0.2,0-0.4,0.2-0.4c0.1,0,7.8-2.6,10.5-9.3c1.7-4.2,1.1-9.2-1.7-14.7
						c-0.1-0.2,0-0.4,0.1-0.5c0.2-0.1,0.4,0,0.5,0.2c2.9,5.8,3.5,10.9,1.7,15.3c-2.9,7-10.6,9.6-10.9,9.7
						C331.1,98.7,331,98.7,331,98.7z"/>
				</g>
			</g>
			<g>
				<g>
					<path class="st42" d="M308,104c-1.9,0.7-4.1,1.1-6.3,1.1c-8.8,0-16.1-7.5-16.1-7.5s-15-11.5-9.1-42.1l2.5,9c0,0-1.9,19.4,8,31
						C292.9,102.4,301.7,103.9,308,104z"/>
				</g>
			</g>
			<g>
				<g>
					<path class="st43" d="M328.2,54.8c0,1-0.1,2-0.4,3.2c-1.2,4.4-2.4,8.8-3.8,13.2c-0.9,2.7-2.7,5.7-5.7,6.2
						c-2.9,0.5-5-1.8-7.5-2.7c-6.5-2.2-14.4-1-20.4,2.1c-5.5,2.8-9.3-5.4-11.6-12.4c-1.6-5.1-2.5-9.1-1.4-14.4
						c0.9-4.1,2.3-8.2,4.3-11.9c1.7-3.2,4.8-8.9,8.7-10c0.4-0.1,0.9-0.2,1.3-0.1c2.1,0.1,4.4,1.8,10.8,1.9c1.6,0,6-1.3,7.9-1.9
						c2-0.7,4.6,1.5,6.2,2.4c6.5,3.7,8.8,11.7,10.6,18.5C327.7,51.1,328.2,52.9,328.2,54.8z"/>
				</g>
			</g>
			<g>
				<g>
					<path class="st44" d="M291.6,27.9c-11.3,7.4-12.7,29-12.9,36.5c-1.5-4.7-2.2-8.8-2.2-8.8c1.9-17.7,11.2-26.8,13.8-27.6
						C290.8,27.9,291.2,27.9,291.6,27.9z"/>
				</g>
			</g>
			<g>
				<g>
					<path class="st45" d="M285.4,51.4c-0.1,0-0.2-0.2-0.1-0.3c1.4-1,6-4,10.3-4c5.1,0,4.1,3.9,2.7,3.9C297,51,288,51.3,285.4,51.4z
						"/>
				</g>
			</g>
			<g>
				<g>
					<path class="st45" d="M319.8,51.5c0.2,0,0.3-0.2,0.1-0.4c-1.5-1.1-6-4-10.1-4c-5.1,0-4.1,3.9-2.7,3.9
						C308.3,51,317.1,51.3,319.8,51.5z"/>
				</g>
			</g>
			<g>
				<g>
					<ellipse cx="292.1" cy="58.4" rx="2.1" ry="2.6"/>
				</g>
			</g>
			<g>
				<g>
					<ellipse cx="312.6" cy="58.4" rx="2.1" ry="2.6"/>
				</g>
			</g>
			<g>
				<g>
					<path class="st46" d="M303.3,73C303.3,73,303.3,73,303.3,73c-2.1-0.1-4.4-0.4-5.5-2.5c-1.3-2.3-0.1-4.5,1-6.5
						c0.3-0.5,0.5-0.9,0.7-1.4c1.2-2.5,2.2-5.2,1.4-7.6c-0.2-0.6-0.5-1.1-0.9-1.6c-0.3-0.4-0.6-0.9-0.8-1.4c-0.1-0.2,0-0.4,0.2-0.5
						c0.2-0.1,0.4,0,0.5,0.2c0.2,0.4,0.5,0.8,0.8,1.2c0.4,0.5,0.8,1.1,1,1.8c0.8,2.7-0.2,5.5-1.5,8.1c-0.2,0.5-0.5,1-0.7,1.4
						c-1,1.9-2.1,3.8-1,5.8c1,1.7,3,2,4.9,2.1c0.2,0,0.3,0.2,0.3,0.4C303.6,72.9,303.5,73,303.3,73z"/>
				</g>
			</g>
			<g>
				<g>
					<path class="st3" d="M302.1,83.6c-3.7,0-6.2-1.7-6.3-1.8c-0.4-0.3-0.5-0.8-0.2-1.2c0.3-0.4,0.8-0.5,1.2-0.2
						c0.2,0.1,4.9,3.3,10.9,0c0.4-0.2,1-0.1,1.2,0.3c0.2,0.4,0.1,1-0.3,1.2C306.2,83.1,304,83.6,302.1,83.6z"/>
				</g>
			</g>
			<g>
				<g>
					<path class="st6" d="M285,32.3c-0.1,0-0.2-0.1-0.2-0.2c-0.5-1.3-1-2.7-1.1-4.2c-0.2-1.7,0.2-3.2,1-4.3c0.7-0.9,1.7-1.6,2.8-1.9
						c3.6-1.1,5.2,0.7,6.9,2.7c0.6,0.7,1.3,1.4,2,2.1c4.3,3.6,9.4,1.9,12,0.5c0.1-0.1,0.3,0,0.4,0.1c0.1,0.1,0,0.3-0.1,0.4
						c-4.7,2.4-9.2,2.2-12.6-0.6c-0.8-0.7-1.4-1.4-2.1-2.1c-1.7-1.9-3.1-3.5-6.3-2.5c-1.1,0.3-2,0.9-2.6,1.7c-0.7,1-1,2.4-0.9,3.9
						c0.1,1.4,0.6,2.8,1.1,4.1C285.3,32.1,285.2,32.2,285,32.3C285,32.3,285,32.3,285,32.3z"/>
				</g>
			</g>
			<g>
				<g>
					<path class="st6" d="M274.1,48.8c-0.1,0-0.2-0.1-0.3-0.2c0-0.1-0.4-1.9-0.3-4.1c0.1-3,0.9-5.5,2.3-7c1.6-1.8,4.1-2.5,7.3-2.2
						c0.1,0,0.2,0.1,0.2,0.3c0,0.1-0.1,0.3-0.3,0.2c-3-0.4-5.3,0.3-6.9,2c-1.7,1.9-2.1,4.7-2.2,6.7c-0.1,2.2,0.3,4,0.3,4
						C274.4,48.6,274.3,48.8,274.1,48.8C274.1,48.8,274.1,48.8,274.1,48.8z"/>
				</g>
			</g>
			<g>
				<g>
					<path class="st6" d="M266.7,52.5C266.7,52.5,266.6,52.5,266.7,52.5c-0.2-0.1-0.3-0.2-0.2-0.4c0-0.1,1.1-2.8,3.2-5.5
						c2.9-3.6,6.4-5.3,10.2-4.9c0.1,0,0.3,0.1,0.2,0.3c0,0.1-0.1,0.3-0.3,0.2c-3.7-0.3-6.9,1.3-9.7,4.7c-2.1,2.6-3.1,5.3-3.1,5.4
						C266.9,52.4,266.8,52.5,266.7,52.5z"/>
				</g>
			</g>
			<g>
				<g>
					<path class="st6" d="M337.3,47.5c-0.1,0-0.2-0.1-0.2-0.1c0-0.1-3.4-6.6-11.6-5.5c-0.1,0-0.3-0.1-0.3-0.2c0-0.1,0.1-0.3,0.2-0.3
						c8.6-1.1,12.1,5.7,12.1,5.8c0.1,0.1,0,0.3-0.1,0.4C337.4,47.5,337.3,47.5,337.3,47.5z"/>
				</g>
			</g>
			<g>
				<g>
					<path class="st6" d="M332.1,53.1c0,0-0.1,0-0.1,0c-0.1-0.1-0.2-0.2-0.1-0.4c0-0.1,3.3-6,0.5-12.3c-0.8-1.8-1.9-3-3.3-3.4
						c-2.5-0.8-5.1,0.7-5.1,0.7c-0.1,0.1-0.3,0-0.4-0.1c-0.1-0.1,0-0.3,0.1-0.4c0.1-0.1,2.8-1.7,5.5-0.8c1.6,0.5,2.8,1.8,3.7,3.7
						c2.8,6.5-0.5,12.7-0.6,12.7C332.3,53,332.2,53.1,332.1,53.1z"/>
				</g>
			</g>
		</g>
		<g>
			<path class="st47" d="M303.6,144.1c-9.1-0.5-23.8-29.4-23.8-29.4s-35.4,14.6-42.6,16.6s-13.7,17.7-15.4,29.1
				c-1.6,11.4-6.1,48.4-3.1,63.6s7.2,24,29.2,20.9c0,0,5.2,21.2,3.4,28.3c-1.8,7-3.2,12.9-3.2,12.9l102.5-0.6c0,0-5.1-12-4.9-15.8
				c0.2-3.8,4.1-33.6,4.1-33.6s18.6,10.1,34.7,8.2c16.1-1.9,3.6-94.1-15.9-106.1s-36.8-21.7-42.7-22.9
				C323.2,114.8,316.8,144.9,303.6,144.1z"/>
		</g>
		<g>
			<path class="st48" d="M251.7,273c0,0,25.5,9.4,48.4,8.1s45.9-11.5,45.9-11.5l31.5,87.3l-63.2,0L300,331.5l-5.5,25.3h-53.5
				C241.1,356.9,246.9,278.1,251.7,273z"/>
		</g>
		<g>
			<polygon class="st49" points="299.6,332.1 288.9,323.8 289.6,322.7 300.4,331 			"/>
		</g>
		<g>
			<path class="st49" d="M245.3,314.3l-0.8-1c10.2-8.1,14.9-17,17-23.1c2.3-6.6,2.1-11.3,2.1-11.3l1.3-0.1
				C264.9,279,265.5,298.4,245.3,314.3z"/>
		</g>
		<g>
			<path class="st49" d="M360.7,313.6c-23.3-3.6-28.3-38.4-28.4-38.8l1.2-0.2c0,0.3,4.9,34.2,27.3,37.7L360.7,313.6z"/>
		</g>
		<g>
			<path class="st50" d="M252.3,207H251c0-20.5-14.6-56.5-14.8-56.8l1.2-0.5C237.6,150,252.3,186.2,252.3,207z"/>
		</g>
		<g>
			<path class="st50" d="M351.5,205.1c-0.6-14.3,11.2-55,11.7-56.7l1.2,0.4c-0.1,0.4-12.2,42.2-11.6,56.3L351.5,205.1z"/>
		</g>
		<g>
			<path class="st43" d="M387.4,244.2c-2.4,4.8-9.3,2.3-13.2,1.6c-7-1.3-14.1-2.2-20.6-5.6c-1.3-0.7-2.5-1.4-3.7-2.2
				c-13.5-9.2-31.8-21.2-35.8-22.6c-0.4-0.1-0.6-0.2-0.7-0.1c-0.2,0.1-0.6,0.2-1.1,0.4c-2.8,0.9-10.1,3.3-24,13.3
				c-12.3,8.9-26.8,14.4-41.7,15.4c-4,0.3-8.7,0.9-12.4-1.3c-3.9-2.3-6.2-7.3-6.6-11.9c-0.9-8.8,5.3-18.3,11.2-23.6
				c2.1-1.9,4.3-3.6,6.7-5.1c1-0.6,1.9-1.2,2.9-1.8c6.6-3.8,13.8-6.6,20.8-8.9c30.3-9.9,78.6-5,98.3,10.9
				c5.1,4.1,10.2,8.4,14.1,13.8c2.9,4,4.3,8.8,5.3,13.6C387.9,234.5,389.6,240,387.4,244.2z"/>
		</g>
		<g>
			<g>
				<path class="st39" d="M314.2,215.4c-0.4-0.1-0.6-0.2-0.7-0.1c-0.2,0.1-0.6,0.2-1.1,0.4c-27.9-19.3-60.5-14.4-66.8-13.2
					c1-0.6,1.9-1.2,2.9-1.8C259.3,199.1,288.8,197.1,314.2,215.4z"/>
			</g>
		</g>
	</g>
</g>
</svg>
